{"title":"Star Trek V -The Final Frontier (1989) - DvdRip x264 [=Faith=]","uid":12016697,"size":1870045889,"categoryP":"video","categoryS":"movies","magnet":"?xt=urn:btih:ebc6b868abb5ac3758ee482ad7071ff9f88157c8&amp;dn=Star+Trek+V+-The+Final+Frontier+%281989%29+-+DvdRip+x264+%5B%3DFaith%3D%5D&amp;tr=udp%3A%2F%2Ftracker.openbittorrent.com%3A80&amp;tr=udp%3A%2F%2Fopen.demonii.com%3A1337&amp;tr=udp%3A%2F%2Ftracker.coppersurfer.tk%3A6969&amp;tr=udp%3A%2F%2Fexodus.desync.com%3A6969","seeders":1,"leechers":0,"uploader":"Faithwyn","files":7,"time":1434322171,"description":" Star Trek V: The Final Frontier\n\n\nCaptain Kirk and his crew must deal with Mr. Spock's long-lost half-brother who\nhijacks the Enterprise for an obsessive search for God at the center of the galaxy.\n\n\nThe Film:\n\nDirected by: William Shatner\nProduced by: Harve Bennett\nScreenplay by: David Loughery\nStory: William Shatner\nHarve Bennett\nDavid Loughery\nBased on: Star Trek by Gene Roddenberry\nStars: William Shatner, Leonard Nimoy, DeForest Kelley,\nJames Doohan, Walter Koenig, Nichelle Nichols, George Takei,\nLaurence Luckinbill, David Warner, Charles Cooper, Cynthia Gouw,\nTodd Bryant, Spice Williams-Crosby\nMusic by: Jerry Goldsmith\nCinematography: Andrew Laszlo\nEdited by: Peter E. Berger\nDistributed by: Paramount Pictures\nRelease date: June 9, 1989\nRunning time: 106 minutes\nCountry: United States\nLanguages: English, French, Spanish, Portuguese\nSubtitles: English, French, Spanish, Portuguese\nIMDB Rating: 5.4\n\n\n\nGeneral:\n\nComplete name : Star Trek V - The Final Frontier.m4v\nFormat : MPEG-4\nFormat profile : Base Media / Version 2\nCodec ID : mp42\nFile size : 1.74 GiB\nDuration : 1h 46mn\nOverall bit rate mode : Variable\nOverall bit rate : 2 341 Kbps\nEncoded date : UTC 2015-06-13 05:38:26\nTagged date : UTC 2015-06-13 06:35:53\nWriting application : HandBrake 0.9.9\n\n\nVideo:\n\nID : 1\nFormat : AVC\nFormat/Info : Advanced Video Codec\nFormat profile : &lt;a class=&quot;__cf_email__&quot; href=&quot;/cdn-cgi/l/email-protection&quot; data-cfemail=&quot;1c54757b745c5028322d&quot;&gt;[email&amp;#160;protected]&lt;/a&gt;&lt;script data-cfhash='f9e31' type=&quot;text/javascript&quot;&gt;\n/* &lt;![CDATA[ */!function(){try{var t=&quot;currentScript&quot;in document?document.currentScript:function(){for(var t=document.getElementsByTagName(&quot;script&quot;),e=t.length;e--;)if(t[e].getAttribute(&quot;data-cfhash&quot;))return t[e]}();if(t&amp;&amp;t.previousSibling){var e,r,n,i,c=t.previousSibling,a=c.getAttribute(&quot;data-cfemail&quot;);if(a){for(e=&quot;&quot;,r=parseInt(a.substr(0,2),16),n=2;a.length-n;n+=2)i=parseInt(a.substr(n,2),16)^r,e+=String.fromCharCode(i);e=document.createTextNode(e),c.parentNode.replaceChild(e,c)}t.parentNode.removeChild(t);}}catch(u){}}()/* ]]&gt; */&lt;/script&gt;\nFormat settings, CABAC : Yes\nFormat settings, ReFrames : 8 frames\nCodec ID : avc1\nCodec ID/Info : Advanced Video Coding\nDuration : 1h 46mn\nBit rate : 1 044 Kbps\nWidth : 720 pixels\nHeight : 360 pixels\nDisplay aspect ratio : 2.40:1\nFrame rate mode : Variable\nFrame rate : 23.976 fps\nMinimum frame rate : 19.965 fps\nMaximum frame rate : 29.970 fps\nColor space : YUV\nChroma subsampling : 4:2:0\nBit depth : 8 bits\nScan type : Progressive\nBits/(Pixel*Frame) : 0.168\nStream size : 795 MiB (45%)\nWriting library : x264 core 130 r2273 b3065e6\nEncoding settings : (see .nfo file for details)\nEncoded date : UTC 2015-06-13 05:38:26\nTagged date : UTC 2015-06-13 06:35:53\nColor primaries : BT.601 NTSC\nTransfer characteristics : BT.709\nMatrix coefficients : BT.601\n\n\nAudio 1:\n\nID : 2\nFormat : AC-3\nFormat/Info : Audio Coding 3\nMode extension : CM (complete main)\nFormat settings, Endianness : Big\nCodec ID : ac-3\nDuration : 1h 46mn\nBit rate mode : Constant\nBit rate : 448 Kbps\nChannel(s) : 6 channels\nChannel positions : Front: L C R, Side: L R, LFE\nSampling rate : 48.0 KHz\nBit depth : 16 bits\nCompression mode : Lossy\nStream size : 341 MiB (19%)\nLanguage : English\nSee .nfo file for additional audio and subtitle info!\n\n\nSubtitles:\n\nTracks : 1-8\nID : 6-13\nFormat : mp4s\nCodec ID : E0\nDuration : 1h 41min\nBit rate mode : Variable\nLanguages : English, French, Spanish, Portuguese\nTracks 5-8 : Subs for Klingon language only!","torrent":{"xt":"urn:btih:ebc6b868abb5ac3758ee482ad7071ff9f88157c8","amp;dn":"Star+Trek+V+-The+Final+Frontier+%281989%29+-+DvdRip+x264+%5B%3DFaith%3D%5D","amp;tr":["udp%3A%2F%2Ftracker.openbittorrent.com%3A80","udp%3A%2F%2Fopen.demonii.com%3A1337","udp%3A%2F%2Ftracker.coppersurfer.tk%3A6969","udp%3A%2F%2Fexodus.desync.com%3A6969"],"infoHash":"ebc6b868abb5ac3758ee482ad7071ff9f88157c8","infoHashBuffer":{"type":"Buffer","data":[235,198,184,104,171,181,172,55,88,238,72,42,215,7,31,249,248,129,87,200]},"announce":[],"urlList":[]}}